# xmcd CD database file
#
# Track frame offsets:
#	150
#	22878
#	43267
#	57709
#	91059
#	109672
#	128704
#	146947
#	161356
#	181014
#	200157
#
# Disc length: 2928 seconds
#
# Revision: 0
# Processed by: cddbd v1.5.2PL0 Copyright (c) Steve Scherf et al.
# Submitted via: CDex 1.51
#
DISCID=970b6e0b
DTITLE=Waylon Jennings - Never Say Die-The Final Concert CD1
DYEAR=2007
DGENRE=Country
TTITLE0=Never Say Die
TTITLE1=Medley-Good Hearted Woman;Mamas Don't Let  Your Babies
TTITLE2=Trouble Man
TTITLE3=Medley-Amanda;A Couple More Years
TTITLE4=Waymore's Blues (w John Anderson)
TTITLE5=It's The World's Gone Crazy (Cotillion)
TTITLE6=Love's The Only Chain (w Jessi Colter)
TTITLE7=I'm Not Lisa (w Jessi Colter)
TTITLE8=Storms Never Last (w Jessi Colter)
TTITLE9=Suspicious Minds (w Jessi Colter)
TTITLE10=Closing In On The Fire
EXTD=YEAR: 2007
EXTT0=
EXTT1=
EXTT2=
EXTT3=
EXTT4=
EXTT5=
EXTT6=
EXTT7=
EXTT8=
EXTT9=
EXTT10=
PLAYORDER=
